# xmcd
#
# Track frame offsets: 
#        150
#        24715
#        50547
#        77182
#        102942
#        128275
#        150272
#        172015
#        193597
#        218597
#        246865
#        272642
#        303682
#
# Disc length: 4444 seconds
#
# Revision: 0
# Processed by: cddbd v1.5.2PL0 Copyright (c) Steve Scherf et al.
# Submitted via: ExactAudioCopy v0.99pb3
#
DISCID=a8115a0d
DTITLE=New Life Community Choir with John P. Kee - Right Now Praise (2
DTITLE=007)
DYEAR=2007
DGENRE=
TTITLE0=Right Now Praise
TTITLE1=Oh Lord, Our God (Featuring Fred Hammond)
TTITLE2=Glorious Is Thy Name
TTITLE3=It Shall Be
TTITLE4=Come On Let's Worship
TTITLE5=Live For You
TTITLE6=Sanctuary
TTITLE7=I'm Waiting
TTITLE8=I Know It
TTITLE9=Forgiven
TTITLE10=No Greater Love
TTITLE11=Build A House
TTITLE12=Right Now Praise (Remix)
EXTD=
EXTT0=
EXTT1=
EXTT2=
EXTT3=
EXTT4=
EXTT5=
EXTT6=
EXTT7=
EXTT8=
EXTT9=
EXTT10=
EXTT11=
EXTT12=
PLAYORDER=
